# xmcd CD database file
#
# Track frame offsets:
#	150
#	20921
#	41155
#	61927
#
# Disc length: 1093 seconds
#
# Revision: 3
# Processed by: cddbd v1.5.2PL0 Copyright (c) Steve Scherf et al.
# Submitted via: CDex 1.70beta2
#
DISCID=33044304
DTITLE=Sonar Pocket - 365日のラブストーリー。
DYEAR=2011
DGENRE=JPop
TTITLE0=365日のラブストーリー。
TTITLE1=ゴメンね…。 ～お前との約束～
TTITLE2=365日のラブストーリー。 (instrumental)
TTITLE3=ゴメンね…。 ～お前との約束～ (instrumental)
EXTD=YEAR: 2011
EXTT0=
EXTT1=
EXTT2=
EXTT3=
PLAYORDER=
